{"title":"Acid.Cam.The.Movie.1080p.x264","uid":12669833,"size":5000525712,"categoryP":"video","categoryS":"hd___movies","magnet":"?xt=urn:btih:f284bceb050ddcc069ea8cae667f1b3088e8bd3b&amp;dn=Acid.Cam.The.Movie.1080p.x264&amp;tr=udp%3A%2F%2Ftracker.leechers-paradise.org%3A6969&amp;tr=udp%3A%2F%2Fzer0day.ch%3A1337&amp;tr=udp%3A%2F%2Fopen.demonii.com%3A1337&amp;tr=udp%3A%2F%2Ftracker.coppersurfer.tk%3A6969&amp;tr=udp%3A%2F%2Fexodus.desync.com%3A6969","seeders":1,"leechers":0,"uploader":"lostjaredX","files":1,"time":1446428670,"description":"Acid Cam is a trip through a parallel universe. Where colors morph and thoughts come alive. \r\n\r\nNow you can see Acid Cam the Movie in full bitrate instead of the highly compressed version on YouTube. It also contains a Dolby Digital 2.0 soundtrack. I have been watching this on my 4K HDTV upscaling it to 4K and the quality of the picture is amazing. \r\n\r\nThis was created with software and is a software generated animation.\r\n\r\n\r\nFormat                                   : Matroska\r\nFormat version                           : Version 2\r\nFile size                                : 4.66 GiB\r\nDuration                                 : 43mn 29s\r\nOverall bit rate                         : 15.3 Mbps\r\nEncoded date                             : UTC 2015-10-25T22:57:16Z\r\nWriting application                      : HandBrake 0.10.2 2015061100\r\nWriting library                          : Lavf55.12.0\r\n\r\nVideo\r\nID                                       : 1\r\nFormat                                   : AVC\r\nFormat/Info                              : Advanced Video Codec\r\nFormat profile                           :   \r\nFormat settings, CABAC                   : Yes\r\nFormat settings, ReFrames                : 4 frames\r\nCodec ID                                 : V_MPEG4/ISO/AVC\r\nDuration                                 : 43mn 29s\r\nBit rate                                 : 15.0 Mbps\r\nWidth                                    : 1 920 pixels\r\nHeight                                   : 1 080 pixels\r\nDisplay aspect ratio                     : 16:9\r\nFrame rate mode                          : Constant\r\nFrame rate                               : 23.976 fps\r\nColor space                              : YUV\r\nChroma subsampling                       : 4:2:0\r\nBit depth                                : 8 bits\r\nScan type                                : Progressive\r\nBits/(Pixel*Frame)                       : 0.302\r\nStream size                              : 4.45 GiB (96%)\r\nWriting library                          : x264 core 142 r2479 dd79a61\r\nEncoding settings                        : cabac=1 / ref=1 / deblock=1:0:0 / analyse=0x1:0x111 / me=hex / subme=2 / psy=1 / psy_rd=1.00:0.00 / mixed_ref=0 / me_range=16 / chroma_me=1 / trellis=0 / 8x8dct=0 / cqm=0 / deadzone=21,11 / fast_pskip=1 / chroma_qp_offset=0 / threads=12 / lookahead_threads=4 / sliced_threads=0 / nr=0 / decimate=1 / interlaced=0 / bluray_compat=0 / constrained_intra=0 / bframes=3 / b_pyramid=2 / b_adapt=1 / b_bias=0 / direct=1 / weightb=1 / open_gop=0 / weightp=1 / keyint=240 / keyint_min=24 / scenecut=40 / intra_refresh=0 / rc_lookahead=10 / rc=2pass / mbtree=1 / bitrate=15000 / ratetol=1.0 / qcomp=0.60 / qpmin=0 / qpmax=69 / qpstep=4 / cplxblur=20.0 / qblur=0.5 / vbv_maxrate=20000 / vbv_bufsize=25000 / nal_hrd=none / filler=0 / ip_ratio=1.40 / aq=1:1.00\r\nDefault                                  : Yes\r\nForced                                   : No\r\nColor primaries                          : BT.709\r\nTransfer characteristics                 : BT.709\r\nMatrix coefficients                      : BT.709\r\n\r\nAudio\r\nID                                       : 2\r\nFormat                                   : AC-3\r\nFormat/Info                              : Audio Coding 3\r\nMode extension                           : CM (complete main)\r\nFormat settings, Endianness              : Big\r\nCodec ID                                 : A_AC3\r\nDuration                                 : 43mn 29s\r\nBit rate mode                            : Constant\r\nBit rate                                 : 384 Kbps\r\nChannel count                            : 2 channels\r\nChannel positions                        : Front: L R\r\nSampling rate                            : 48.0 KHz\r\nBit depth                                : 16 bits\r\nCompression mode                         : Lossy\r\nDelay relative to video                  : 1mn 5s\r\nStream size                              : 119 MiB (3%)\r\nTitle                                    : Stereo\r\nDefault                                  : Yes\r\nForced                                   : No","torrent":{"xt":"urn:btih:f284bceb050ddcc069ea8cae667f1b3088e8bd3b","amp;dn":"Acid.Cam.The.Movie.1080p.x264","amp;tr":["udp%3A%2F%2Ftracker.leechers-paradise.org%3A6969","udp%3A%2F%2Fzer0day.ch%3A1337","udp%3A%2F%2Fopen.demonii.com%3A1337","udp%3A%2F%2Ftracker.coppersurfer.tk%3A6969","udp%3A%2F%2Fexodus.desync.com%3A6969"],"infoHash":"f284bceb050ddcc069ea8cae667f1b3088e8bd3b","infoHashBuffer":{"type":"Buffer","data":[242,132,188,235,5,13,220,192,105,234,140,174,102,127,27,48,136,232,189,59]},"announce":[],"urlList":[]}}